<svg xmlns="http://www.w3.org/2000/svg" xmlns:xlink="http://www.w3.org/1999/xlink" width="370" height="479" viewBox="0 0 370 479">
    <defs>
        <path id="a" d="M0 0h375v490H0z"/>
    </defs>
    <g fill="none" fill-rule="evenodd" transform="translate(-5 -10)">
        <mask id="b" fill="#fff">
            <use xlink:href="#a"/>
        </mask>
        <g mask="url(#b)">
            <g transform="translate(5 10)">
                <path fill="#0008FF" fill-rule="nonzero" d="M379.402 454.368c-1.521-40.024-6.148-79.86-12.565-119.382-5.794-35.658-13.198-71.036-19.007-106.694a1073.4 1073.4 0 0 1-2.992-19.495c-3.914-31.46-5.858-63.288-12.564-94.32-3.71-17.174-9.27-34.359-17.66-49.835a69.017 69.017 0 0 0-5.062-7.967c-4.128-5.622-8.625-12.01-13.886-16.93a134.638 134.638 0 0 0-15.706-12.274 50.822 50.822 0 0 0-7.723-4.322c-2.378-1.08-4.802-2.196-7.26-3.267a79.09 79.09 0 0 0-4.298-2.684c-6.631-3.824-13.96-6.637-21.016-9.46a37.874 37.874 0 0 0-13.038-5.747c-5.744-.827-11.777-2.4-17.61-1.892-4.488.388-10.322.911-14.695 1.992a21.6 21.6 0 0 0-2.767.896 38.925 38.925 0 0 0-8.152 2.903 49.693 49.693 0 0 0-16.868 6.13c-12.24 8.893-24.501 17.856-35.9 27.79-11.213 9.775-20.776 21.098-29.217 33.362a85.683 85.683 0 0 0-7.933 14.276c-3.989 9.133-7.953 18.105-9.907 27.885-3.236 16.233-4.288 32.57-4.104 49.058.14 12.448.374 24.817-.763 37.191-2.542 14.829-6.571 29.379-11.079 43.72-5.44 17.333-11.273 34.542-16.952 51.786-11.468 34.89-23.32 69.687-34.404 104.712-5.305 16.86-10.106 33.95-12.644 51.458C1.815 465.786 0 478.344 0 491.028c0 12.448 1.705 24.896 3.89 37.116a143.11 143.11 0 0 0 6.67 24.344c4.164 11.269 8.91 22.502 14.704 33.059 5.849 10.65 13.044 20.162 20.612 29.672a101.646 101.646 0 0 0 16.265 16.398c9.733 7.743 19.246 14.774 30.59 19.883 10.928 4.92 21.997 9.46 33.475 12.906 17.95 5.428 36.438 8.336 55.076 10.362a194.53 194.53 0 0 0 43.443.03c18.074-2.101 35.9-4.8 52.817-11.701 10.42-4.248 20.827-8.465 30.415-14.371a191.776 191.776 0 0 0 26.615-19.978c8.766-7.762 16.18-17.208 22.766-26.814 6.587-9.605 11.194-20.774 14.68-31.739 3.694-11.617 5.035-24.145 6.292-36.17.867-8.331 1.146-16.716 1.376-25.087a836.763 836.763 0 0 0-.284-54.57zM99.91 484.001c0 .408.035.812.06 1.22a239.428 239.428 0 0 0 3.894 32.167 144.34 144.34 0 0 1-3.645-14.863A148.958 148.958 0 0 1 99.91 484z"/>
                <circle cx="179" cy="92" r="11" fill="#FFF"/>
                <circle cx="237" cy="92" r="11" fill="#FFF"/>
                <path stroke="#FFF" stroke-linecap="round" stroke-width="3" d="M228 121.093c-15.824-13.198-25.912-12.42-38 4.907"/>
            </g>
        </g>
    </g>
</svg>
