<svg xmlns="http://www.w3.org/2000/svg" xmlns:xlink="http://www.w3.org/1999/xlink" width="143" height="135" viewBox="0 0 143 135">
    <defs>
        <path id="a" d="M0 .002h142.245V134.18H0z"/>
    </defs>
    <g fill="none" fill-rule="evenodd">
        <path d="M-4-8h152v152H-4z"/>
        <path fill="#FF5BA7" d="M110.454 120.406l-.031-.05c.49 1.468.422.714.03.05"/>
        <g transform="translate(.403 .068)">
            <mask id="b" fill="#fff">
                <use xlink:href="#a"/>
            </mask>
            <path fill="#FF5BA7" d="M109.655 95.465l.009-.027c.205-.152.41-.304.617-.467l-.626.494m-3.497 22.895l.382.125c1.128.37.08.148-.382-.125m-9.859-.803l.373-.035c-.234.174-1.895.172-.373.035M64.188 99.701c.124-.035.628.088.909.408l-.132-.035a8.252 8.252 0 0 0-.777-.373m-1.89-26.336c0 .073.005.149.008.223a.819.819 0 0 1-.048-.106c.004-.065.01-.139.017-.212.01.033.015.063.023.095m79.58 9.05c-.821-2.55-2.309-4.17-4.418-5.775-6.18-4.705-14.31-5.723-21.774-4.597-.084.013-.166.03-.25.043.707-10.028-1.15-20.301-6.368-28.831a40.338 40.338 0 0 0-7.409-8.884c.096-5.41-.827-10.648-3.187-15.812-2.738-5.994-7.907-11.053-13.753-13.995C78.6 1.484 71.941.002 65.099.002c-7.302 0-14.586 1.563-21.662 3.243-4.898 1.163-8.272 7.049-6.714 11.888 1.653 5.134 6.578 7.996 11.825 6.75 2.853-.677 5.71-1.336 8.596-1.853.697-.125 1.395-.232 2.093-.348l.052-.004c1.333-.105 2.655-.26 3.992-.312a43.748 43.748 0 0 1 4.366.04c.327.02.66.059.993.094.163.01.34.025.496.046.134.01.266.02.398.023l-.303-.009.06.01c1.056.196 2.103.446 3.135.747a30.16 30.16 0 0 1 1.67.54l.295.104c.814.397 1.62.799 2.398 1.272.442.268.865.556 1.292.844l.016.017c.178.173.36.34.543.508a42.528 42.528 0 0 0-5.056-.428c-.14-.006-.28-.007-.42-.012-.067 0-.133-.003-.2-.004a28.799 28.799 0 0 0-3.833.145c-.193.016-.387.027-.58.046a57.282 57.282 0 0 0-7.478 1.235 37.487 37.487 0 0 0-8.774 2.285c-6.956 2.757-14.013 6.222-19.455 11.491-5.393 5.222-8.64 12.46-10.231 19.727a71.152 71.152 0 0 0-1.454 9.822 41.563 41.563 0 0 1-.424-1.5 59.084 59.084 0 0 1-.982-4.545c-.08-.459-.142-.923-.227-1.381-.206-1.119.105.836.104.834-.288-.803-.209-1.927-.27-2.788a51.24 51.24 0 0 1-.118-4.89c.023-.93.073-1.859.151-2.785.025-.299.062-.597.087-.895.298-1.597.62-3.177 1.08-4.737.203-.69.426-1.375.67-2.052.061-.17.126-.339.19-.508.75-1.445 1.446-2.893 2.33-4.267.328-.509.992-1.142 1.256-1.717.14-.168.28-.336.426-.498.793-.879 1.695-1.627 2.556-2.42-.51.438-.197-.026.246-.313.092-.06.182-.123.273-.184.095-.093.195-.182.288-.277-.09.091-.171.174-.249.25.296-.2.589-.404.89-.595a29.427 29.427 0 0 1 2.273-1.287c4.483-2.31 6.155-9.003 3.449-13.223-2.949-4.597-8.358-5.939-13.153-3.467C6.895 22.454-.498 39.978.026 56.433c.276 8.67 2.074 17.639 6.085 25.375 4.158 8.024 11.629 13.806 20.232 16.283.383.11.766.212 1.149.308 4.33 7.206 10.605 13.27 17.902 17.368 6.895 3.871 14.33 5.88 22.127 6.765 6.956.79 14.894.517 21.472-2.04a30.821 30.821 0 0 0 4.954-2.458c.857-.107 2.513-.284 2.727-.512.356-.033.712-.067 1.07-.092.96-.065 1.921-.09 2.883-.073.73.013 1.454.08 2.18.129.432.092.868.164 1.296.267.69.168 1.362.38 2.035.6.274.186.759.332.999.464.411.227.813.472 1.206.73.154.127.338.279.423.36.264.25.518.508.765.774a17.546 17.546 0 0 1-.18-.354c.164.332.443.636.64.952.15.243.286.493.426.74.126.486.291.987.442 1.467.002.34.024.689.012 1.022-.182 5.057 4.551 9.892 9.613 9.664 5.364-.241 9.418-4.246 9.613-9.664.424-11.805-8.408-21.337-19.046-24.87a30.151 30.151 0 0 0-2.61-.734 60.368 60.368 0 0 0 1.206-3.411c.255-.195.574-.435.72-.537.52-.366 1.05-.718 1.588-1.055a32.928 32.928 0 0 1 3.05-1.696c.084-.041.17-.079.253-.119.418-.147.833-.308 1.256-.443 1.063-.337 2.218-.45 3.283-.753.09-.005.18-.015.268-.019.51-.022 1.019-.024 1.528-.01.233.007 1.019.188 1.381.14.59.133 1.176.292 1.752.48.021.006.043.015.065.022.526.368 2.711 1.633 2.965 1.827 1.853 1.41 5.281 1.562 7.407.973 2.23-.617 4.647-2.35 5.745-4.44 1.18-2.244 1.77-4.96.97-7.448" mask="url(#b)"/>
        </g>
        <path fill="#FF5BA7" d="M28.646 33.88c.195-.178.471-.451.842-.844a1.77 1.77 0 0 0-.06.043c-.26.27-.516.54-.782.801M69.165 20.299c-.465-.034-.789.007.424.054a1.7 1.7 0 0 0-.068-.013 9.664 9.664 0 0 1-.356-.041"/>
        <path fill="#000" d="M60.94 34.965a5.6 5.6 0 0 1-.217 1.771 3.821 3.821 0 0 1-1.175-1.119c-.695-1.035-2.317-.039-1.614 1.008.77 1.147 1.772 1.956 3.029 2.402.374.133.871-.084 1.055-.459.55-1.123.83-2.332.79-3.603-.04-1.282-1.909-1.288-1.868 0M69.167 32.22c-.219-1.13-1.922-.651-1.703.476.056.288.069.572.056.854-.369-.198-.738-.395-1.108-.591-1.005-.537-1.899 1.008-.891 1.545l2.204 1.177c.52.278 1.117.03 1.298-.535.307-.96.336-1.94.144-2.926M65.65 38.763l.2.676c.07.232.163.426.336.554.157.117.388.166.564.094.349-.143.655-.654.51-1.14l-.2-.677c-.068-.232-.162-.426-.336-.554-.156-.117-.387-.166-.563-.094-.35.143-.655.655-.511 1.14"/>
        <path fill="#000" d="M66.014 41.186l.777 2.457c.355 1.12 2.005.638 1.647-.492l-.777-2.457c-.355-1.119-2.005-.639-1.647.492"/>
    </g>
</svg>
