<svg xmlns="http://www.w3.org/2000/svg" xmlns:xlink="http://www.w3.org/1999/xlink" width="21" height="15" viewBox="0 0 21 15">
    <defs>
        <path id="a" d="M0 .582h1.704V2.26H0z"/>
        <path id="c" d="M.932.914H19.96V7H.932z"/>
    </defs>
    <g fill="none" fill-rule="evenodd">
        <path fill="#FFF" d="M6.555 1.827l-.076-.019a.398.398 0 0 1 .094-.133.76.76 0 0 0-.018.152m-.773 1.89c.655.424 1.637.335 2.3-.026C9.485 2.929 9.2.654 7.779.124A2.05 2.05 0 0 0 5.68.549a1.985 1.985 0 0 0-.59 1.209l-.002.002c-.267.737.095 1.572.693 1.958M13.696 3.996c1.53.101 2.922-1.818 2.018-3.267-.602-.966-1.883-.887-2.724-.257a.653.653 0 0 0-.51.24c-1.017 1.139-.326 3.183 1.216 3.284"/>
        <g transform="translate(0 5)">
            <mask id="b" fill="#fff">
                <use xlink:href="#a"/>
            </mask>
            <path fill="#FFF" d="M1.583 1.48C2.064.835.98.211.503.849l-.383.513c-.48.645.603 1.269 1.08.631l.383-.513" mask="url(#b)"/>
        </g>
        <path fill="#FFF" d="M3.788 6.487c.061-.197.12-.394.182-.59.279-.9-1.48-1.285-1.758-.383l-.182.59c-.279.9 1.48 1.283 1.758.383M18 6.389v-.778c0-.814-1-.815-1 0v.778c0 .814 1 .816 1 0M20.944 5.972a2.28 2.28 0 0 1-.134-1.166c.132-1.08-1.653-1.07-1.784 0-.069.555 0 1.089.198 1.616.383 1.018 2.107.58 1.72-.45"/>
        <g transform="translate(0 8)">
            <mask id="d" fill="#fff">
                <use xlink:href="#c"/>
            </mask>
            <path fill="#FFF" d="M18.592 1.265c-3.083 5.196-13.5 6.092-16.323.13-.401-.847-1.66-.108-1.259.736 3.311 6.992 15.198 6.012 18.842-.13.48-.81-.78-1.544-1.26-.736" mask="url(#d)"/>
        </g>
        <path d="M-12-16h44v44h-44z"/>
    </g>
</svg>
