<svg xmlns="http://www.w3.org/2000/svg" xmlns:xlink="http://www.w3.org/1999/xlink" width="19" height="20" viewBox="0 0 19 20">
    <defs>
        <path id="a" d="M0 .82h7.044v6.445H0z"/>
    </defs>
    <g fill="none" fill-rule="evenodd">
        <g>
            <mask id="b" fill="#fff">
                <use xlink:href="#a"/>
            </mask>
            <path fill="#FFF" d="M6.927 1.873c.5-.775-.738-1.493-1.234-.721C4.36 3.219 2.55 4.83.36 5.946c-.82.418-.098 1.651.722 1.234a15.063 15.063 0 0 0 5.844-5.307" mask="url(#b)"/>
        </g>
        <path fill="#FFF" d="M6.97 6.956c.101-.25-.067-.6-.292-.723-.727-.393-1.567-.286-2.157.301a.587.587 0 0 0-.178.403 2.676 2.676 0 0 0-.34 1.426c.01.25.188.579.466.617 1.334.183 2.053-.915 2.5-2.024M18.49 4.701c-1.982-.415-3.75-1.25-5.256-2.522-.678-.573-1.69.364-1.008.939A13.243 13.243 0 0 0 18.11 5.98c.894.187 1.274-1.093.38-1.28M13.782 7.34l-.007-.01c.085-.318-.03-.7-.43-.83l-1.452-.472c-.347-.113-.713.132-.814.462-.437 1.416 1.019 2.872 2.437 2.43a.676.676 0 0 0 .463-.815c-.067-.255-.132-.51-.197-.764M11.649 16.393c-.107 1.556-1.019 2.21-2.525 2.28-.647.032-1.426.147-1.785-.643-.183-.4-.01-1.267.042-1.69.172-1.42.936-3.436 2.776-2.964a.611.611 0 0 0 .388-.026c.054.033.105.069.176.088 1.074.295.986 2.1.928 2.955m-.578-4.221a.605.605 0 0 0-.39.022c-.053-.032-.104-.066-.173-.084-2.415-.62-4.017 1.487-4.37 3.635-.326 1.984-.254 4.157 2.226 4.249 2.233.083 4.209-.652 4.55-3.064.234-1.653.103-4.223-1.843-4.758"/>
        <path d="M-15-13h44v44h-44z"/>
    </g>
</svg>
